<svg width="770" height="1309" viewBox="0 0 770 1309" fill="none" xmlns="http://www.w3.org/2000/svg">
<g id="scan mobile">
<g id="scan_visor_mobile">
<g id="helmet top">
<path id="Polygon 10" d="M25 25.7265C306.177 101.56 463.823 102.767 745 25.311V17H25V25.7265Z" fill="#161515"/>
<g id="Polygon 11" filter="url(#filter0_diiif)">
<path d="M25.666 18.6622C301.596 98.1962 459.112 97.9433 745 18.6622V25.311C461.391 103.665 303.847 105.412 25.666 27.3887V18.6622Z" fill="#7DD4F2"/>
<path d="M26.166 27.0096V19.3266C163.851 58.9777 272.097 78.7494 381.599 78.7178C491.106 78.6863 601.84 58.8493 744.5 19.3196V24.9303C602.893 64.0348 492.748 84.0138 383.295 84.4912C273.845 84.9686 165.058 65.9453 26.166 27.0096Z" stroke="#0D2229"/>
</g>
<g id="Polygon 12" filter="url(#filter1_d)">
<path d="M375.675 17H378.673V36.5308L330.384 34.0375L312.401 48.9973L218.155 37.7774L210.495 26.1421L170.865 17H189.514L211.494 21.9866L218.821 33.2064L312.734 44.8418L330.051 29.4665L376.008 31.5442L375.675 17Z" fill="#262626"/>
<path d="M376.187 17.5H378.173V36.0043L330.41 33.5382L330.214 33.5281L330.064 33.6531L312.246 48.4753L218.444 37.3084L210.913 25.8671L210.802 25.6999L210.607 25.6549L175.257 17.5H189.458L211.186 22.4294L218.402 33.4798L218.529 33.6741L218.759 33.7026L312.672 45.338L312.897 45.3658L313.066 45.2157L330.231 29.9751L375.986 32.0437L376.52 32.0679L376.508 31.5328L376.187 17.5Z" stroke="#2C2C2B"/>
</g>
<g id="Polygon 13" filter="url(#filter2_d)">
<path d="M394.324 17H391.327V36.5308L439.616 34.0375L457.599 48.9973L551.845 37.7774L559.505 26.1421L599.135 17L580.485 17L558.506 21.9866L551.179 33.2064L457.266 44.8418L439.949 29.4665L393.991 31.5442L394.324 17Z" fill="#262626"/>
<path d="M393.813 17.5H391.827V36.0043L439.59 33.5382L439.785 33.5281L439.936 33.6531L457.754 48.4753L551.555 37.3084L559.087 25.8671L559.197 25.6999L559.392 25.6549L594.743 17.5L580.541 17.5L558.814 22.4294L551.598 33.4798L551.471 33.6741L551.241 33.7026L457.328 45.338L457.103 45.3658L456.934 45.2157L439.769 29.9751L394.014 32.0437L393.479 32.0679L393.492 31.5328L393.813 17.5Z" stroke="#2C2C2B"/>
</g>
<g id="Polygon 16" filter="url(#filter3_if)">
<path d="M120.245 17C321.227 72.5474 436.097 73.1977 645.093 17H701.041C451.361 90.7327 311.507 90.577 62.2988 17H120.245Z" fill="#262626"/>
</g>
<g id="Group 5">
<path id="Polygon 14" d="M346.789 48.2886L346.285 48.4634V48.9972V56.9682C335.65 56.8882 329.089 56.7742 318.299 55.8601L331.704 41.0336L352.279 41.8235V46.3857L346.789 48.2886Z" fill="#131312" stroke="#2D2D2C" stroke-width="1.5"/>
<path id="Polygon 15" d="M354.778 57.3893V54.4747L360.823 51.8348L366.599 52.1952V57.3893H354.778Z" fill="#131312" stroke="#2D2D2C" stroke-width="1.5"/>
<g id="Polygon 17" filter="url(#filter4_dii)">
<path d="M298.747 57.7238L336.711 58.9704V65.2036L299.08 62.7103L298.747 57.7238Z" fill="#5ECCF1"/>
</g>
<g id="Polygon 18" filter="url(#filter5_dii)">
<path d="M342.373 61.0482L380.005 61.4637V67.6969L342.706 66.4503L342.373 61.0482Z" fill="#5ECCF1"/>
</g>
<g id="Polygon 19" style="mix-blend-mode:lighten" opacity="0.25">
<path d="M295.416 32.7909L336.711 31.1287V58.9704L298.747 57.7238L295.416 32.7909Z" fill="url(#paint0_linear)"/>
</g>
<g id="Polygon 20" style="mix-blend-mode:lighten" opacity="0.25">
<path d="M341.374 36.1152L380.671 39.4396L379.949 61.4637L342.373 61.0482L341.374 36.1152Z" fill="url(#paint1_linear)"/>
</g>
</g>
<g id="Group 6">
<path id="Polygon 14_2" d="M418.548 48.2886L419.053 48.4634V48.9972V56.9682C429.688 56.8882 436.249 56.7742 447.039 55.8601L433.633 41.0336L413.058 41.8235V46.3857L418.548 48.2886Z" fill="#131312" stroke="#2D2D2C" stroke-width="1.5"/>
<path id="Polygon 15_2" d="M410.559 57.3893V54.4747L404.514 51.8348L398.738 52.1952V57.3893H410.559Z" fill="#131312" stroke="#2D2D2C" stroke-width="1.5"/>
<g id="Polygon 17_2" filter="url(#filter6_dii)">
<path d="M466.591 57.7238L428.626 58.9704V65.2036L466.258 62.7103L466.591 57.7238Z" fill="#5ECCF1"/>
</g>
<g id="Polygon 18_2" filter="url(#filter7_dii)">
<path d="M422.965 61.0482L385.333 61.4637V67.6969L422.632 66.4503L422.965 61.0482Z" fill="#5ECCF1"/>
</g>
<g id="Polygon 19_2" style="mix-blend-mode:lighten" opacity="0.25">
<path d="M469.921 32.7909L428.626 31.1287V58.9704L466.591 57.7238L469.921 32.7909Z" fill="url(#paint2_linear)"/>
</g>
<g id="Polygon 20_2" style="mix-blend-mode:lighten" opacity="0.25">
<path d="M423.964 36.1152L384.667 39.4396L385.388 61.4637L422.965 61.0482L423.964 36.1152Z" fill="url(#paint3_linear)"/>
</g>
</g>
</g>
<g id="bottom">
<g id="Group 7">
<path id="Polygon 21" d="M34.2524 1297.17L280.318 1297.17C232.876 1250.81 190.823 1248.2 106.772 1275.45L103.771 1273.9L34.2524 1297.17Z" fill="#161615"/>
<g id="Polygon 22" filter="url(#filter8_dii)">
<path d="M25 1293.75L99.2697 1270.79L104.021 1272.03C205.927 1241.56 246.589 1254.63 282.377 1297.17H280.067C238.217 1257.56 200.505 1245.64 106.271 1276.07L101.27 1274.83L34.5025 1297.17H25V1293.75Z" fill="#5ECCF1"/>
</g>
<path id="Polygon 23" d="M91.5231 1295.67L110.522 1288.96L110.522 1288.96L110.533 1288.96C155.941 1272.54 185.874 1267.49 208.915 1270.18C230.504 1272.7 246.213 1282.05 263.11 1295.67H251.618C225.93 1284.67 204.729 1279.92 183.609 1280.32C162.501 1280.72 141.591 1286.26 116.502 1295.67H91.5231Z" fill="#262626" stroke="#2F2F2E" stroke-width="3"/>
<path id="Polygon 24" d="M150.4 1276.57L149.783 1276.68V1277.31V1284.14V1285.05L150.68 1284.87L173.937 1280.22L174.472 1280.11L174.534 1279.57L175.285 1273.05L175.4 1272.05L174.406 1272.23L150.4 1276.57Z" fill="#070707" stroke="#181818" stroke-width="1.5"/>
</g>
<g id="Group 8">
<path id="Polygon 21_2" d="M735.748 1297.38L489.682 1297.38C537.124 1251.02 579.177 1248.41 663.228 1275.66L666.229 1274.1L735.748 1297.38Z" fill="#161615"/>
<g id="Polygon 22_2" filter="url(#filter9_dii)">
<path d="M745 1293.96L670.73 1271L665.979 1272.24C564.073 1241.77 523.411 1254.84 487.623 1297.38H489.933C531.783 1257.77 569.495 1245.85 663.729 1276.28L668.73 1275.04L735.497 1297.38H745V1293.96Z" fill="#5ECCF1"/>
</g>
<path id="Polygon 23_2" d="M678.477 1295.88L659.478 1289.17L659.478 1289.17L659.468 1289.17C614.059 1272.75 584.127 1267.7 561.085 1270.39C539.496 1272.91 523.787 1282.26 506.89 1295.88H518.382C544.071 1284.88 565.271 1280.13 586.392 1280.53C607.499 1280.93 628.409 1286.47 653.498 1295.88H678.477Z" fill="#262626" stroke="#2F2F2E" stroke-width="3"/>
<path id="Polygon 24_2" d="M619.6 1276.78L620.217 1276.89V1277.52V1284.34V1285.26L619.32 1285.08L596.063 1280.43L595.528 1280.32L595.466 1279.78L594.715 1273.26L594.6 1272.26L595.594 1272.44L619.6 1276.78Z" fill="#070707" stroke="#181818" stroke-width="1.5"/>
</g>
</g>
<g id="inside_helmet">
<g id="decals">
<g id="missile separators">
<g id="Polygon 59" filter="url(#filter10_d)">
<path d="M120.75 981.648L129 978.836L157.25 1059.71L128.75 1167.3L125 1168L151.5 1068.14L120.75 981.648Z" fill="#7BCFEC" fill-opacity="0.28"/>
<path d="M119.459 977.862L115.624 979.17L116.981 982.988L147.316 1068.32L121.134 1166.98L119.508 1173.1L125.737 1171.93L129.487 1171.23L131.97 1170.76L132.617 1168.32L161.117 1060.73L161.431 1059.54L161.026 1058.39L132.776 977.516L131.467 973.768L127.709 975.05L119.459 977.862Z" stroke="#AEBCD1" stroke-opacity="0.14" stroke-width="8"/>
</g>
<g id="Polygon 60" filter="url(#filter11_d)">
<path d="M118.75 1172.92L116.75 1180.66L45.5 1228.48L48 1219.34L118.75 1172.92Z" fill="#7BCFEC" fill-opacity="0.28"/>
</g>
<g id="Polygon 61" filter="url(#filter12_d)">
<path d="M649.5 981.648L641.25 978.836L613 1059.71L641.5 1167.3L645.25 1168L618.75 1068.14L649.5 981.648Z" fill="#7BCFEC" fill-opacity="0.28"/>
<path d="M650.791 977.862L654.626 979.17L653.269 982.988L622.934 1068.32L649.116 1166.98L650.742 1173.1L644.513 1171.93L640.763 1171.23L638.28 1170.76L637.633 1168.32L609.133 1060.73L608.819 1059.54L609.224 1058.39L637.474 977.516L638.783 973.768L642.541 975.05L650.791 977.862Z" stroke="#AEBCD1" stroke-opacity="0.14" stroke-width="8"/>
</g>
<g id="Polygon 62" filter="url(#filter13_d)">
<path d="M651.5 1172.92L653.5 1180.66L724.75 1228.48L722.25 1219.34L651.5 1172.92Z" fill="#7BCFEC" fill-opacity="0.28"/>
</g>
</g>
<g id="above content">
<g id="Polygon 27" filter="url(#filter14_d)">
<path d="M145.099 112.111L97.3153 161L85 146.778L134.261 97L209.138 104.111V108.556L202.241 116.111L145.099 112.111Z" fill="#7BCFEC" fill-opacity="0.28"/>
</g>
<g id="Polygon 28" filter="url(#filter15_d)">
<path d="M624.901 112.111L672.685 161L685 146.778L635.739 97L560.862 104.111V108.556L567.759 116.111L624.901 112.111Z" fill="#7BCFEC" fill-opacity="0.28"/>
</g>
<g id="Polygon 29" filter="url(#filter16_d)">
<path d="M209.138 104.111C243.748 107.11 263.277 108.248 298.3 109.444L302.241 113.889C366.687 115.942 402.82 115.925 467.266 114.333L472.192 109.444C506.794 107.912 526.206 106.805 560.862 104.111V108.556L474.163 113.444L469.729 118.333C403.167 120.383 365.848 120.639 299.286 118.333L295.345 113.444L209.138 108.556V104.111Z" fill="#7BCFEC" fill-opacity="0.28"/>
</g>
<g id="Polygon 30" filter="url(#filter17_d)">
<path d="M619.483 116.556L656.429 154.778L640.665 174.333L600.271 177V173L630.32 170.333L645.099 152.111L613.079 117.889L619.483 116.556Z" fill="#7BCFEC" fill-opacity="0.23"/>
</g>
<g id="Polygon 31" filter="url(#filter18_d)">
<path d="M149.532 116.556L112.586 154.778L128.35 174.333L168.744 177V173L138.695 170.333L123.916 152.111L155.936 117.889L149.532 116.556Z" fill="#7BCFEC" fill-opacity="0.23"/>
</g>
</g>
</g>
<g id="energy">
<g id="energy blocks">
<path id="Polygon 41" d="M327.982 155.951H339.71V169.015H327.982V155.951Z" fill="#6DABCC" fill-opacity="0.4" stroke="#6DABCC"/>
<path id="Polygon 44" d="M347.563 157.357H359.291V170.421H347.563V157.357Z" fill="#6DABCC" fill-opacity="0.4" stroke="#6DABCC"/>
<path id="Polygon 45" d="M367.144 157.357H378.871V170.421H367.144V157.357Z" fill="#6DABCC" fill-opacity="0.4" stroke="#6DABCC"/>
<path id="Polygon 46" d="M387.703 157.357H399.43V170.421H387.703V157.357Z" fill="#6DABCC" fill-opacity="0.4" stroke="#6DABCC"/>
<path id="Polygon 47" d="M406.305 157.357H418.032V170.421H406.305V157.357Z" fill="#6DABCC" fill-opacity="0.4" stroke="#6DABCC"/>
<path id="Polygon 48" d="M426.864 157.357H438.592V170.421H426.864V157.357Z" fill="#6DABCC" fill-opacity="0.4" stroke="#6DABCC"/>
<path id="Polygon 49" d="M446.444 155.951H458.172V169.015H446.444V155.951Z" fill="#6DABCC" fill-opacity="0.4" stroke="#6DABCC"/>
<path id="Polygon 50" d="M466.024 155.951H477.752V169.015H466.024V155.951Z" fill="#6DABCC" fill-opacity="0.4" stroke="#6DABCC"/>
<path id="Polygon 51" d="M485.605 154.544H497.333V167.609H485.605V154.544Z" fill="#6DABCC" fill-opacity="0.4" stroke="#6DABCC"/>
<path id="Polygon 52" d="M506.165 153.138H517.892V166.202H506.165V153.138Z" fill="#6DABCC" fill-opacity="0.4" stroke="#6DABCC"/>
<path id="Polygon 53" d="M525.745 151.731H537.472V164.796H525.745V151.731Z" fill="#6DABCC" fill-opacity="0.4" stroke="#6DABCC"/>
<path id="Polygon 54" d="M546.305 148.918H558.032V161.983H546.305V148.918Z" fill="#6DABCC" fill-opacity="0.4" stroke="#6DABCC"/>
<path id="Polygon 42" d="M308.402 155.951H320.13V169.015H308.402V155.951Z" fill="#6DABCC" fill-opacity="0.4" stroke="#6DABCC"/>
<path id="Polygon 43" d="M288.822 154.544H300.549V167.609H288.822V154.544Z" fill="#6DABCC" fill-opacity="0.4" stroke="#6DABCC"/>
</g>
<path id="energy_bar" d="M288.811 183.579C394.716 189.242 454.093 187.976 560 178.657V185.689C454.544 196.752 395.137 197.405 288.811 191.315V183.579Z" fill="#6DABCC" fill-opacity="0.4"/>
<rect id="energy_text" x="210" y="134.354" width="76.3637" height="57.6639" fill="#C4C4C4" fill-opacity="0.2"/>
</g>
<g id="scan panels">
<g id="center_block">
<path id="center_panel_box" d="M656.521 207H113V871.061H656.521V207Z" fill="#C4C4C4" fill-opacity="0.2"/>
<g id="Polygon 67">
<path d="M685.732 333.179H702.493L725 375.842V463.423V833.495L702.493 882H685.732L702.493 846.969V778.703L718.296 743.672L717.338 466.118L701.535 432.883V363.719L685.732 333.179Z" fill="#14191C" fill-opacity="0.2"/>
<path d="M685.732 328.679H678.337L681.736 335.247L697.035 364.815V432.883V433.899L697.471 434.816L712.842 467.141L713.792 742.711L698.391 776.853L697.993 777.735V778.703V845.948L681.673 880.058L678.591 886.5H685.732H702.493H705.366L706.575 883.894L729.082 835.389L729.5 834.489V833.495V463.423V375.842V374.728L728.98 373.742L706.473 331.08L705.207 328.679H702.493H685.732Z" stroke="#7BCFEC" stroke-opacity="0.24" stroke-width="9"/>
</g>
<path id="Polygon 68" d="M689.563 488.574L702.014 511.03V705.048L689.563 726.606V488.574Z" fill="#7BCFEC" fill-opacity="0.2"/>
<g id="Polygon 69">
<path d="M84.2676 333.179H67.507L45 375.842V463.423V833.495L67.507 882H84.2676L67.507 846.969V778.703L51.7042 743.672L52.6619 466.118L68.4648 432.883V363.719L84.2676 333.179Z" fill="#14191C" fill-opacity="0.2"/>
<path d="M84.2676 328.679H91.6628L88.2642 335.247L72.9648 364.815V432.883V433.899L72.5287 434.816L57.1584 467.141L56.2075 742.711L71.609 776.853L72.007 777.735V778.703V845.948L88.3269 880.058L91.4091 886.5H84.2676H67.507H64.6343L63.4251 883.894L40.918 835.389L40.5 834.489V833.495V463.423V375.842V374.728L41.0199 373.742L63.5269 331.08L64.7932 328.679H67.507H84.2676Z" stroke="#7BCFEC" stroke-opacity="0.24" stroke-width="9"/>
</g>
<path id="Polygon 70" d="M80.4365 488.574L67.9858 511.03V705.048L80.4365 726.606V488.574Z" fill="#7BCFEC" fill-opacity="0.2"/>
</g>
<g id="description_box" filter="url(#filter19_d)">
<path d="M156.197 947.999L154.714 948.619L154.409 950.198L147.732 984.799L147.585 985.56L147.825 986.297L170.89 1057.03L142.077 1182.1L140.471 1189.06L146.568 1185.33C161.403 1176.23 173.951 1171.85 185.079 1171.56C196.112 1171.26 206.076 1174.98 215.828 1182.72C225.652 1190.52 235.218 1202.39 245.286 1218.3C255.34 1234.19 265.786 1253.93 277.429 1277.35L278.705 1279.91L281.326 1278.76C319.972 1261.71 350.444 1253.14 382.12 1253.18C413.822 1253.21 447.023 1261.86 491.121 1279.78L493.984 1280.94L495.062 1278.05C510.771 1235.84 525.54 1211.64 544.778 1199.94C563.877 1188.33 588.152 1188.6 624.272 1197.63L628.897 1198.79L627.939 1194.12L600.095 1058.46L622.753 986.265L622.99 985.51L622.824 984.737L616.66 956.068L616.34 954.578L614.948 953.958C522.234 912.66 450.676 893.026 380.612 892.857C310.552 892.688 242.291 911.985 156.197 947.999Z" stroke="#7BCFEC" stroke-opacity="0.28" stroke-width="6"/>
</g>
</g>
</g>
</g>
</g>
<defs>
<filter id="filter0_diiif" x="0.666016" y="0.66217" width="769.334" height="116.338" filterUnits="userSpaceOnUse" color-interpolation-filters="sRGB">
<feFlood flood-opacity="0" result="BackgroundImageFix"/>
<feColorMatrix in="SourceAlpha" type="matrix" values="0 0 0 0 0 0 0 0 0 0 0 0 0 0 0 0 0 0 127 0"/>
<feOffset dy="7"/>
<feGaussianBlur stdDeviation="12.5"/>
<feColorMatrix type="matrix" values="0 0 0 0 0.254902 0 0 0 0 0.647059 0 0 0 0 0.811765 0 0 0 0.8 0"/>
<feBlend mode="lighten" in2="BackgroundImageFix" result="effect1_dropShadow"/>
<feBlend mode="normal" in="SourceGraphic" in2="effect1_dropShadow" result="shape"/>
<feColorMatrix in="SourceAlpha" type="matrix" values="0 0 0 0 0 0 0 0 0 0 0 0 0 0 0 0 0 0 127 0" result="hardAlpha"/>
<feOffset dy="4"/>
<feGaussianBlur stdDeviation="1.5"/>
<feComposite in2="hardAlpha" operator="arithmetic" k2="-1" k3="1"/>
<feColorMatrix type="matrix" values="0 0 0 0 0.219608 0 0 0 0 0.545098 0 0 0 0 0.666667 0 0 0 0.35 0"/>
<feBlend mode="lighten" in2="shape" result="effect2_innerShadow"/>
<feColorMatrix in="SourceAlpha" type="matrix" values="0 0 0 0 0 0 0 0 0 0 0 0 0 0 0 0 0 0 127 0" result="hardAlpha"/>
<feOffset dx="10"/>
<feGaussianBlur stdDeviation="2"/>
<feComposite in2="hardAlpha" operator="arithmetic" k2="-1" k3="1"/>
<feColorMatrix type="matrix" values="0 0 0 0 0 0 0 0 0 0 0 0 0 0 0 0 0 0 0.5 0"/>
<feBlend mode="normal" in2="effect2_innerShadow" result="effect3_innerShadow"/>
<feColorMatrix in="SourceAlpha" type="matrix" values="0 0 0 0 0 0 0 0 0 0 0 0 0 0 0 0 0 0 127 0" result="hardAlpha"/>
<feOffset dx="-10"/>
<feGaussianBlur stdDeviation="2"/>
<feComposite in2="hardAlpha" operator="arithmetic" k2="-1" k3="1"/>
<feColorMatrix type="matrix" values="0 0 0 0 0 0 0 0 0 0 0 0 0 0 0 0 0 0 0.5 0"/>
<feBlend mode="normal" in2="effect3_innerShadow" result="effect4_innerShadow"/>
<feGaussianBlur stdDeviation="1" result="effect5_foregroundBlur"/>
</filter>
<filter id="filter1_d" x="168.865" y="17" width="211.808" height="37.9973" filterUnits="userSpaceOnUse" color-interpolation-filters="sRGB">
<feFlood flood-opacity="0" result="BackgroundImageFix"/>
<feColorMatrix in="SourceAlpha" type="matrix" values="0 0 0 0 0 0 0 0 0 0 0 0 0 0 0 0 0 0 127 0"/>
<feOffset dy="4"/>
<feGaussianBlur stdDeviation="1"/>
<feColorMatrix type="matrix" values="0 0 0 0 0.117647 0 0 0 0 0.133333 0 0 0 0 0.145098 0 0 0 0.75 0"/>
<feBlend mode="normal" in2="BackgroundImageFix" result="effect1_dropShadow"/>
<feBlend mode="normal" in="SourceGraphic" in2="effect1_dropShadow" result="shape"/>
</filter>
<filter id="filter2_d" x="389.327" y="17" width="211.808" height="37.9973" filterUnits="userSpaceOnUse" color-interpolation-filters="sRGB">
<feFlood flood-opacity="0" result="BackgroundImageFix"/>
<feColorMatrix in="SourceAlpha" type="matrix" values="0 0 0 0 0 0 0 0 0 0 0 0 0 0 0 0 0 0 127 0"/>
<feOffset dy="4"/>
<feGaussianBlur stdDeviation="1"/>
<feColorMatrix type="matrix" values="0 0 0 0 0.117647 0 0 0 0 0.133333 0 0 0 0 0.145098 0 0 0 0.75 0"/>
<feBlend mode="normal" in2="BackgroundImageFix" result="effect1_dropShadow"/>
<feBlend mode="normal" in="SourceGraphic" in2="effect1_dropShadow" result="shape"/>
</filter>
<filter id="filter3_if" x="61.2988" y="16" width="640.742" height="60.2411" filterUnits="userSpaceOnUse" color-interpolation-filters="sRGB">
<feFlood flood-opacity="0" result="BackgroundImageFix"/>
<feBlend mode="normal" in="SourceGraphic" in2="BackgroundImageFix" result="shape"/>
<feColorMatrix in="SourceAlpha" type="matrix" values="0 0 0 0 0 0 0 0 0 0 0 0 0 0 0 0 0 0 127 0" result="hardAlpha"/>
<feOffset dy="4"/>
<feGaussianBlur stdDeviation="2"/>
<feComposite in2="hardAlpha" operator="arithmetic" k2="-1" k3="1"/>
<feColorMatrix type="matrix" values="0 0 0 0 0.188235 0 0 0 0 0.188235 0 0 0 0 0.188235 0 0 0 1 0"/>
<feBlend mode="normal" in2="shape" result="effect1_innerShadow"/>
<feGaussianBlur stdDeviation="0.5" result="effect2_foregroundBlur"/>
</filter>
<filter id="filter4_dii" x="294.747" y="57.7238" width="45.9648" height="15.4799" filterUnits="userSpaceOnUse" color-interpolation-filters="sRGB">
<feFlood flood-opacity="0" result="BackgroundImageFix"/>
<feColorMatrix in="SourceAlpha" type="matrix" values="0 0 0 0 0 0 0 0 0 0 0 0 0 0 0 0 0 0 127 0"/>
<feOffset dy="4"/>
<feGaussianBlur stdDeviation="2"/>
<feColorMatrix type="matrix" values="0 0 0 0 0 0 0 0 0 0 0 0 0 0 0 0 0 0 0.25 0"/>
<feBlend mode="normal" in2="BackgroundImageFix" result="effect1_dropShadow"/>
<feBlend mode="normal" in="SourceGraphic" in2="effect1_dropShadow" result="shape"/>
<feColorMatrix in="SourceAlpha" type="matrix" values="0 0 0 0 0 0 0 0 0 0 0 0 0 0 0 0 0 0 127 0" result="hardAlpha"/>
<feOffset dx="4"/>
<feGaussianBlur stdDeviation="2"/>
<feComposite in2="hardAlpha" operator="arithmetic" k2="-1" k3="1"/>
<feColorMatrix type="matrix" values="0 0 0 0 0.160784 0 0 0 0 0.27451 0 0 0 0 0.298039 0 0 0 1 0"/>
<feBlend mode="normal" in2="shape" result="effect2_innerShadow"/>
<feColorMatrix in="SourceAlpha" type="matrix" values="0 0 0 0 0 0 0 0 0 0 0 0 0 0 0 0 0 0 127 0" result="hardAlpha"/>
<feOffset dx="-4"/>
<feGaussianBlur stdDeviation="2"/>
<feComposite in2="hardAlpha" operator="arithmetic" k2="-1" k3="1"/>
<feColorMatrix type="matrix" values="0 0 0 0 0.160784 0 0 0 0 0.27451 0 0 0 0 0.298039 0 0 0 1 0"/>
<feBlend mode="normal" in2="effect2_innerShadow" result="effect3_innerShadow"/>
</filter>
<filter id="filter5_dii" x="338.373" y="61.0482" width="45.6318" height="14.6488" filterUnits="userSpaceOnUse" color-interpolation-filters="sRGB">
<feFlood flood-opacity="0" result="BackgroundImageFix"/>
<feColorMatrix in="SourceAlpha" type="matrix" values="0 0 0 0 0 0 0 0 0 0 0 0 0 0 0 0 0 0 127 0"/>
<feOffset dy="4"/>
<feGaussianBlur stdDeviation="2"/>
<feColorMatrix type="matrix" values="0 0 0 0 0 0 0 0 0 0 0 0 0 0 0 0 0 0 0.25 0"/>
<feBlend mode="normal" in2="BackgroundImageFix" result="effect1_dropShadow"/>
<feBlend mode="normal" in="SourceGraphic" in2="effect1_dropShadow" result="shape"/>
<feColorMatrix in="SourceAlpha" type="matrix" values="0 0 0 0 0 0 0 0 0 0 0 0 0 0 0 0 0 0 127 0" result="hardAlpha"/>
<feOffset dx="4"/>
<feGaussianBlur stdDeviation="2"/>
<feComposite in2="hardAlpha" operator="arithmetic" k2="-1" k3="1"/>
<feColorMatrix type="matrix" values="0 0 0 0 0.160784 0 0 0 0 0.27451 0 0 0 0 0.298039 0 0 0 1 0"/>
<feBlend mode="normal" in2="shape" result="effect2_innerShadow"/>
<feColorMatrix in="SourceAlpha" type="matrix" values="0 0 0 0 0 0 0 0 0 0 0 0 0 0 0 0 0 0 127 0" result="hardAlpha"/>
<feOffset dx="-4"/>
<feGaussianBlur stdDeviation="2"/>
<feComposite in2="hardAlpha" operator="arithmetic" k2="-1" k3="1"/>
<feColorMatrix type="matrix" values="0 0 0 0 0.160784 0 0 0 0 0.27451 0 0 0 0 0.298039 0 0 0 1 0"/>
<feBlend mode="normal" in2="effect2_innerShadow" result="effect3_innerShadow"/>
</filter>
<filter id="filter6_dii" x="424.626" y="57.7238" width="45.9648" height="15.4799" filterUnits="userSpaceOnUse" color-interpolation-filters="sRGB">
<feFlood flood-opacity="0" result="BackgroundImageFix"/>
<feColorMatrix in="SourceAlpha" type="matrix" values="0 0 0 0 0 0 0 0 0 0 0 0 0 0 0 0 0 0 127 0"/>
<feOffset dy="4"/>
<feGaussianBlur stdDeviation="2"/>
<feColorMatrix type="matrix" values="0 0 0 0 0 0 0 0 0 0 0 0 0 0 0 0 0 0 0.25 0"/>
<feBlend mode="normal" in2="BackgroundImageFix" result="effect1_dropShadow"/>
<feBlend mode="normal" in="SourceGraphic" in2="effect1_dropShadow" result="shape"/>
<feColorMatrix in="SourceAlpha" type="matrix" values="0 0 0 0 0 0 0 0 0 0 0 0 0 0 0 0 0 0 127 0" result="hardAlpha"/>
<feOffset dx="4"/>
<feGaussianBlur stdDeviation="2"/>
<feComposite in2="hardAlpha" operator="arithmetic" k2="-1" k3="1"/>
<feColorMatrix type="matrix" values="0 0 0 0 0.160784 0 0 0 0 0.27451 0 0 0 0 0.298039 0 0 0 1 0"/>
<feBlend mode="normal" in2="shape" result="effect2_innerShadow"/>
<feColorMatrix in="SourceAlpha" type="matrix" values="0 0 0 0 0 0 0 0 0 0 0 0 0 0 0 0 0 0 127 0" result="hardAlpha"/>
<feOffset dx="-4"/>
<feGaussianBlur stdDeviation="2"/>
<feComposite in2="hardAlpha" operator="arithmetic" k2="-1" k3="1"/>
<feColorMatrix type="matrix" values="0 0 0 0 0.160784 0 0 0 0 0.27451 0 0 0 0 0.298039 0 0 0 1 0"/>
<feBlend mode="normal" in2="effect2_innerShadow" result="effect3_innerShadow"/>
</filter>
<filter id="filter7_dii" x="381.333" y="61.0482" width="45.6318" height="14.6488" filterUnits="userSpaceOnUse" color-interpolation-filters="sRGB">
<feFlood flood-opacity="0" result="BackgroundImageFix"/>
<feColorMatrix in="SourceAlpha" type="matrix" values="0 0 0 0 0 0 0 0 0 0 0 0 0 0 0 0 0 0 127 0"/>
<feOffset dy="4"/>
<feGaussianBlur stdDeviation="2"/>
<feColorMatrix type="matrix" values="0 0 0 0 0 0 0 0 0 0 0 0 0 0 0 0 0 0 0.25 0"/>
<feBlend mode="normal" in2="BackgroundImageFix" result="effect1_dropShadow"/>
<feBlend mode="normal" in="SourceGraphic" in2="effect1_dropShadow" result="shape"/>
<feColorMatrix in="SourceAlpha" type="matrix" values="0 0 0 0 0 0 0 0 0 0 0 0 0 0 0 0 0 0 127 0" result="hardAlpha"/>
<feOffset dx="4"/>
<feGaussianBlur stdDeviation="2"/>
<feComposite in2="hardAlpha" operator="arithmetic" k2="-1" k3="1"/>
<feColorMatrix type="matrix" values="0 0 0 0 0.160784 0 0 0 0 0.27451 0 0 0 0 0.298039 0 0 0 1 0"/>
<feBlend mode="normal" in2="shape" result="effect2_innerShadow"/>
<feColorMatrix in="SourceAlpha" type="matrix" values="0 0 0 0 0 0 0 0 0 0 0 0 0 0 0 0 0 0 127 0" result="hardAlpha"/>
<feOffset dx="-4"/>
<feGaussianBlur stdDeviation="2"/>
<feComposite in2="hardAlpha" operator="arithmetic" k2="-1" k3="1"/>
<feColorMatrix type="matrix" values="0 0 0 0 0.160784 0 0 0 0 0.27451 0 0 0 0 0.298039 0 0 0 1 0"/>
<feBlend mode="normal" in2="effect2_innerShadow" result="effect3_innerShadow"/>
</filter>
<filter id="filter8_dii" x="10" y="1236.38" width="287.377" height="71.7899" filterUnits="userSpaceOnUse" color-interpolation-filters="sRGB">
<feFlood flood-opacity="0" result="BackgroundImageFix"/>
<feColorMatrix in="SourceAlpha" type="matrix" values="0 0 0 0 0 0 0 0 0 0 0 0 0 0 0 0 0 0 127 0"/>
<feOffset dy="-4"/>
<feGaussianBlur stdDeviation="7.5"/>
<feColorMatrix type="matrix" values="0 0 0 0 0.368627 0 0 0 0 0.8 0 0 0 0 0.945098 0 0 0 0.6 0"/>
<feBlend mode="normal" in2="BackgroundImageFix" result="effect1_dropShadow"/>
<feBlend mode="normal" in="SourceGraphic" in2="effect1_dropShadow" result="shape"/>
<feColorMatrix in="SourceAlpha" type="matrix" values="0 0 0 0 0 0 0 0 0 0 0 0 0 0 0 0 0 0 127 0" result="hardAlpha"/>
<feOffset dx="-4"/>
<feGaussianBlur stdDeviation="2"/>
<feComposite in2="hardAlpha" operator="arithmetic" k2="-1" k3="1"/>
<feColorMatrix type="matrix" values="0 0 0 0 0.160784 0 0 0 0 0.27451 0 0 0 0 0.298039 0 0 0 1 0"/>
<feBlend mode="normal" in2="shape" result="effect2_innerShadow"/>
<feColorMatrix in="SourceAlpha" type="matrix" values="0 0 0 0 0 0 0 0 0 0 0 0 0 0 0 0 0 0 127 0" result="hardAlpha"/>
<feOffset dx="4"/>
<feGaussianBlur stdDeviation="2"/>
<feComposite in2="hardAlpha" operator="arithmetic" k2="-1" k3="1"/>
<feColorMatrix type="matrix" values="0 0 0 0 0.160784 0 0 0 0 0.27451 0 0 0 0 0.298039 0 0 0 1 0"/>
<feBlend mode="normal" in2="effect2_innerShadow" result="effect3_innerShadow"/>
</filter>
<filter id="filter9_dii" x="472.623" y="1236.59" width="287.377" height="71.7899" filterUnits="userSpaceOnUse" color-interpolation-filters="sRGB">
<feFlood flood-opacity="0" result="BackgroundImageFix"/>
<feColorMatrix in="SourceAlpha" type="matrix" values="0 0 0 0 0 0 0 0 0 0 0 0 0 0 0 0 0 0 127 0"/>
<feOffset dy="-4"/>
<feGaussianBlur stdDeviation="7.5"/>
<feColorMatrix type="matrix" values="0 0 0 0 0.368627 0 0 0 0 0.8 0 0 0 0 0.945098 0 0 0 0.6 0"/>
<feBlend mode="normal" in2="BackgroundImageFix" result="effect1_dropShadow"/>
<feBlend mode="normal" in="SourceGraphic" in2="effect1_dropShadow" result="shape"/>
<feColorMatrix in="SourceAlpha" type="matrix" values="0 0 0 0 0 0 0 0 0 0 0 0 0 0 0 0 0 0 127 0" result="hardAlpha"/>
<feOffset dx="-4"/>
<feGaussianBlur stdDeviation="2"/>
<feComposite in2="hardAlpha" operator="arithmetic" k2="-1" k3="1"/>
<feColorMatrix type="matrix" values="0 0 0 0 0.160784 0 0 0 0 0.27451 0 0 0 0 0.298039 0 0 0 1 0"/>
<feBlend mode="normal" in2="shape" result="effect2_innerShadow"/>
<feColorMatrix in="SourceAlpha" type="matrix" values="0 0 0 0 0 0 0 0 0 0 0 0 0 0 0 0 0 0 127 0" result="hardAlpha"/>
<feOffset dx="4"/>
<feGaussianBlur stdDeviation="2"/>
<feComposite in2="hardAlpha" operator="arithmetic" k2="-1" k3="1"/>
<feColorMatrix type="matrix" values="0 0 0 0 0.160784 0 0 0 0 0.27451 0 0 0 0 0.298039 0 0 0 1 0"/>
<feBlend mode="normal" in2="effect2_innerShadow" result="effect3_innerShadow"/>
</filter>
<filter id="filter10_d" x="106.497" y="967.701" width="59.114" height="211.499" filterUnits="userSpaceOnUse" color-interpolation-filters="sRGB">
<feFlood flood-opacity="0" result="BackgroundImageFix"/>
<feColorMatrix in="SourceAlpha" type="matrix" values="0 0 0 0 0 0 0 0 0 0 0 0 0 0 0 0 0 0 127 0"/>
<feOffset dx="-3"/>
<feGaussianBlur stdDeviation="0.5"/>
<feColorMatrix type="matrix" values="0 0 0 0 0.682353 0 0 0 0 0.737255 0 0 0 0 0.819608 0 0 0 0.05 0"/>
<feBlend mode="normal" in2="BackgroundImageFix" result="effect1_dropShadow"/>
<feBlend mode="normal" in="SourceGraphic" in2="effect1_dropShadow" result="shape"/>
</filter>
<filter id="filter11_d" x="32.5" y="1158.92" width="89.25" height="71.5542" filterUnits="userSpaceOnUse" color-interpolation-filters="sRGB">
<feFlood flood-opacity="0" result="BackgroundImageFix"/>
<feColorMatrix in="SourceAlpha" type="matrix" values="0 0 0 0 0 0 0 0 0 0 0 0 0 0 0 0 0 0 127 0"/>
<feOffset dx="-5" dy="-6"/>
<feGaussianBlur stdDeviation="4"/>
<feColorMatrix type="matrix" values="0 0 0 0 0.682353 0 0 0 0 0.737255 0 0 0 0 0.819608 0 0 0 0.3 0"/>
<feBlend mode="normal" in2="BackgroundImageFix" result="effect1_dropShadow"/>
<feBlend mode="normal" in="SourceGraphic" in2="effect1_dropShadow" result="shape"/>
</filter>
<filter id="filter12_d" x="604.639" y="967.701" width="59.114" height="211.499" filterUnits="userSpaceOnUse" color-interpolation-filters="sRGB">
<feFlood flood-opacity="0" result="BackgroundImageFix"/>
<feColorMatrix in="SourceAlpha" type="matrix" values="0 0 0 0 0 0 0 0 0 0 0 0 0 0 0 0 0 0 127 0"/>
<feOffset dx="3"/>
<feGaussianBlur stdDeviation="0.5"/>
<feColorMatrix type="matrix" values="0 0 0 0 0.682353 0 0 0 0 0.737255 0 0 0 0 0.819608 0 0 0 0.05 0"/>
<feBlend mode="normal" in2="BackgroundImageFix" result="effect1_dropShadow"/>
<feBlend mode="normal" in="SourceGraphic" in2="effect1_dropShadow" result="shape"/>
</filter>
<filter id="filter13_d" x="648.5" y="1158.92" width="89.25" height="71.5542" filterUnits="userSpaceOnUse" color-interpolation-filters="sRGB">
<feFlood flood-opacity="0" result="BackgroundImageFix"/>
<feColorMatrix in="SourceAlpha" type="matrix" values="0 0 0 0 0 0 0 0 0 0 0 0 0 0 0 0 0 0 127 0"/>
<feOffset dx="5" dy="-6"/>
<feGaussianBlur stdDeviation="4"/>
<feColorMatrix type="matrix" values="0 0 0 0 0.682353 0 0 0 0 0.737255 0 0 0 0 0.819608 0 0 0 0.3 0"/>
<feBlend mode="normal" in2="BackgroundImageFix" result="effect1_dropShadow"/>
<feBlend mode="normal" in="SourceGraphic" in2="effect1_dropShadow" result="shape"/>
</filter>
<filter id="filter14_d" x="81" y="97" width="128.138" height="72" filterUnits="userSpaceOnUse" color-interpolation-filters="sRGB">
<feFlood flood-opacity="0" result="BackgroundImageFix"/>
<feColorMatrix in="SourceAlpha" type="matrix" values="0 0 0 0 0 0 0 0 0 0 0 0 0 0 0 0 0 0 127 0"/>
<feOffset dx="-2" dy="6"/>
<feGaussianBlur stdDeviation="1"/>
<feColorMatrix type="matrix" values="0 0 0 0 0.682353 0 0 0 0 0.737255 0 0 0 0 0.819608 0 0 0 0.15 0"/>
<feBlend mode="normal" in2="BackgroundImageFix" result="effect1_dropShadow"/>
<feBlend mode="normal" in="SourceGraphic" in2="effect1_dropShadow" result="shape"/>
</filter>
<filter id="filter15_d" x="560.862" y="97" width="128.138" height="72" filterUnits="userSpaceOnUse" color-interpolation-filters="sRGB">
<feFlood flood-opacity="0" result="BackgroundImageFix"/>
<feColorMatrix in="SourceAlpha" type="matrix" values="0 0 0 0 0 0 0 0 0 0 0 0 0 0 0 0 0 0 127 0"/>
<feOffset dx="2" dy="6"/>
<feGaussianBlur stdDeviation="1"/>
<feColorMatrix type="matrix" values="0 0 0 0 0.682353 0 0 0 0 0.737255 0 0 0 0 0.819608 0 0 0 0.15 0"/>
<feBlend mode="normal" in2="BackgroundImageFix" result="effect1_dropShadow"/>
<feBlend mode="normal" in="SourceGraphic" in2="effect1_dropShadow" result="shape"/>
</filter>
<filter id="filter16_d" x="207.138" y="104.111" width="355.724" height="22.8567" filterUnits="userSpaceOnUse" color-interpolation-filters="sRGB">
<feFlood flood-opacity="0" result="BackgroundImageFix"/>
<feColorMatrix in="SourceAlpha" type="matrix" values="0 0 0 0 0 0 0 0 0 0 0 0 0 0 0 0 0 0 127 0"/>
<feOffset dy="5"/>
<feGaussianBlur stdDeviation="1"/>
<feColorMatrix type="matrix" values="0 0 0 0 0.682353 0 0 0 0 0.737255 0 0 0 0 0.819608 0 0 0 0.15 0"/>
<feBlend mode="normal" in2="BackgroundImageFix" result="effect1_dropShadow"/>
<feBlend mode="normal" in="SourceGraphic" in2="effect1_dropShadow" result="shape"/>
</filter>
<filter id="filter17_d" x="598.271" y="116.556" width="60.1576" height="68.4444" filterUnits="userSpaceOnUse" color-interpolation-filters="sRGB">
<feFlood flood-opacity="0" result="BackgroundImageFix"/>
<feColorMatrix in="SourceAlpha" type="matrix" values="0 0 0 0 0 0 0 0 0 0 0 0 0 0 0 0 0 0 127 0"/>
<feOffset dy="6"/>
<feGaussianBlur stdDeviation="1"/>
<feColorMatrix type="matrix" values="0 0 0 0 0.682353 0 0 0 0 0.737255 0 0 0 0 0.819608 0 0 0 0.1 0"/>
<feBlend mode="normal" in2="BackgroundImageFix" result="effect1_dropShadow"/>
<feBlend mode="normal" in="SourceGraphic" in2="effect1_dropShadow" result="shape"/>
</filter>
<filter id="filter18_d" x="110.586" y="116.556" width="60.1576" height="68.4444" filterUnits="userSpaceOnUse" color-interpolation-filters="sRGB">
<feFlood flood-opacity="0" result="BackgroundImageFix"/>
<feColorMatrix in="SourceAlpha" type="matrix" values="0 0 0 0 0 0 0 0 0 0 0 0 0 0 0 0 0 0 127 0"/>
<feOffset dy="6"/>
<feGaussianBlur stdDeviation="1"/>
<feColorMatrix type="matrix" values="0 0 0 0 0.682353 0 0 0 0 0.737255 0 0 0 0 0.819608 0 0 0 0.1 0"/>
<feBlend mode="normal" in2="BackgroundImageFix" result="effect1_dropShadow"/>
<feBlend mode="normal" in="SourceGraphic" in2="effect1_dropShadow" result="shape"/>
</filter>
<filter id="filter19_d" x="132.942" y="882.856" width="502.853" height="402.03" filterUnits="userSpaceOnUse" color-interpolation-filters="sRGB">
<feFlood flood-opacity="0" result="BackgroundImageFix"/>
<feColorMatrix in="SourceAlpha" type="matrix" values="0 0 0 0 0 0 0 0 0 0 0 0 0 0 0 0 0 0 127 0"/>
<feOffset dy="-4"/>
<feGaussianBlur stdDeviation="1.5"/>
<feColorMatrix type="matrix" values="0 0 0 0 0.682353 0 0 0 0 0.737255 0 0 0 0 0.819608 0 0 0 0.28 0"/>
<feBlend mode="normal" in2="BackgroundImageFix" result="effect1_dropShadow"/>
<feBlend mode="normal" in="SourceGraphic" in2="effect1_dropShadow" result="shape"/>
</filter>
<linearGradient id="paint0_linear" x1="316.064" y1="31.1287" x2="316.064" y2="59.386" gradientUnits="userSpaceOnUse">
<stop stop-color="#5BC5E8" stop-opacity="0"/>
<stop offset="1" stop-color="#5BC5E8"/>
</linearGradient>
<linearGradient id="paint1_linear" x1="359.69" y1="34.453" x2="359.69" y2="62.7104" gradientUnits="userSpaceOnUse">
<stop stop-color="#5BC5E8" stop-opacity="0"/>
<stop offset="1" stop-color="#5BC5E8"/>
</linearGradient>
<linearGradient id="paint2_linear" x1="449.274" y1="31.1287" x2="449.274" y2="59.386" gradientUnits="userSpaceOnUse">
<stop stop-color="#5BC5E8" stop-opacity="0"/>
<stop offset="1" stop-color="#5BC5E8"/>
</linearGradient>
<linearGradient id="paint3_linear" x1="405.647" y1="34.453" x2="405.647" y2="62.7104" gradientUnits="userSpaceOnUse">
<stop stop-color="#5BC5E8" stop-opacity="0"/>
<stop offset="1" stop-color="#5BC5E8"/>
</linearGradient>
</defs>
</svg>
