<svg width="1440" height="1024" viewBox="0 0 1440 1024" fill="none" xmlns="http://www.w3.org/2000/svg">
<g id="scan_visor">
<g id="helmet top">
<path id="Polygon 10" d="M0 13.987C562.355 135.535 877.645 137.469 1440 13.321V0H0V13.987Z" fill="#161515"/>
<g id="Polygon 11" filter="url(#filter0_diiif)">
<path d="M1.33209 2.66418C553.192 130.143 868.224 129.738 1440 2.66418V13.321C872.782 138.908 557.694 141.708 1.33209 16.6512V2.66418Z" fill="#7DD4F2"/>
<path d="M1.83209 16.2511V3.29282C277.491 66.9424 494.095 98.6718 713.197 98.6212C932.305 98.5705 1153.89 66.7382 1439.5 3.28749V12.9196C1156.1 75.6522 935.662 107.712 716.594 108.478C497.528 109.243 279.806 78.7157 1.83209 16.2511Z" stroke="#0D2229"/>
</g>
<g id="Polygon 12" filter="url(#filter1_d)">
<path d="M701.351 0H707.345V31.3043L610.768 27.308L574.801 51.2858L386.309 33.3025L370.99 14.6531L291.73 0H329.029L372.988 7.9926L387.641 25.9759L575.467 44.6253L610.102 19.9815L702.017 23.3117L701.351 0Z" fill="#262626"/>
<path d="M701.865 0.5H706.845V30.7832L610.788 26.8085L610.626 26.8017L610.49 26.892L574.672 50.7712L386.563 32.8245L371.376 14.3357L371.26 14.1946L371.081 14.1614L297.185 0.5H328.984L372.717 8.45152L387.253 26.2918L387.385 26.453L387.592 26.4735L575.418 45.1229L575.604 45.1414L575.757 45.0327L610.253 20.4873L701.999 23.8114L702.532 23.8307L702.516 23.2975L701.865 0.5Z" stroke="#2C2C2B"/>
</g>
<g id="Polygon 13" filter="url(#filter2_d)">
<path d="M738.649 0L732.655 0V31.3043L829.232 27.308L865.199 51.2858L1053.69 33.3025L1069.01 14.6531L1148.27 0L1110.97 0L1067.01 7.9926L1052.36 25.9759L864.533 44.6253L829.898 19.9815L737.983 23.3117L738.649 0Z" fill="#262626"/>
<path d="M738.135 0.5L733.155 0.5V30.7832L829.212 26.8085L829.374 26.8017L829.51 26.892L865.328 50.7712L1053.44 32.8245L1068.62 14.3357L1068.74 14.1946L1068.92 14.1614L1142.82 0.5L1111.02 0.5L1067.28 8.45152L1052.75 26.2918L1052.62 26.453L1052.41 26.4735L864.582 45.1229L864.396 45.1414L864.243 45.0327L829.747 20.4873L738.001 23.8114L737.468 23.8307L737.484 23.2975L738.135 0.5Z" stroke="#2C2C2B"/>
</g>
<g id="Polygon 16" filter="url(#filter3_if)">
<path d="M190.49 0C592.454 89.0324 822.193 90.0749 1240.18 0H1352.08C852.722 118.18 573.013 117.931 74.5976 0H190.49Z" fill="#262626"/>
</g>
<g id="Group 5">
<path id="Polygon 14" d="M643.87 50.5632L643.32 50.7158V51.2858V64.5185C621.189 64.3874 607.904 64.2138 585.294 62.6512L613.041 38.0576L655.309 39.3582V47.3855L643.87 50.5632Z" fill="#131312" stroke="#2D2D2C" stroke-width="1.5"/>
<path id="Polygon 15" d="M658.807 65.1889V59.8105L671.487 55.3725L683.949 55.9956V65.1889H658.807Z" fill="#131312" stroke="#2D2D2C" stroke-width="1.5"/>
<g id="Polygon 17" filter="url(#filter4_dii)">
<path d="M547.493 65.2729L623.423 67.271V77.2618L548.159 73.2655L547.493 65.2729Z" fill="#5ECCF1"/>
</g>
<g id="Polygon 18" filter="url(#filter5_dii)">
<path d="M634.746 70.6013L710.009 71.2673V81.2581L635.412 79.2599L634.746 70.6013Z" fill="#5ECCF1"/>
</g>
<g id="Polygon 19" style="mix-blend-mode:lighten" opacity="0.25">
<path d="M540.833 25.3099L623.423 22.6457V67.271L547.493 65.2729L540.833 25.3099Z" fill="url(#paint0_linear)"/>
</g>
<g id="Polygon 20" style="mix-blend-mode:lighten" opacity="0.25">
<path d="M632.747 30.6383L711.341 35.9667L709.899 71.2674L634.746 70.6013L632.747 30.6383Z" fill="url(#paint1_linear)"/>
</g>
</g>
<g id="Group 6">
<path id="Polygon 14_2" d="M786.806 50.5632L787.355 50.7158V51.2858V64.5185C809.486 64.3874 822.772 64.2138 845.381 62.6512L817.635 38.0576L775.366 39.3582V47.3855L786.806 50.5632Z" fill="#131312" stroke="#2D2D2C" stroke-width="1.5"/>
<path id="Polygon 15_2" d="M771.868 65.1889V59.8105L759.188 55.3725L746.726 55.9956V65.1889H771.868Z" fill="#131312" stroke="#2D2D2C" stroke-width="1.5"/>
<g id="Polygon 17_2" filter="url(#filter6_dii)">
<path d="M883.182 65.2729L807.253 67.271V77.2618L882.516 73.2655L883.182 65.2729Z" fill="#5ECCF1"/>
</g>
<g id="Polygon 18_2" filter="url(#filter7_dii)">
<path d="M795.93 70.6013L720.666 71.2673V81.2581L795.264 79.2599L795.93 70.6013Z" fill="#5ECCF1"/>
</g>
<g id="Polygon 19_2" style="mix-blend-mode:lighten" opacity="0.25">
<path d="M889.843 25.3099L807.253 22.6457V67.271L883.182 65.2729L889.843 25.3099Z" fill="url(#paint2_linear)"/>
</g>
<g id="Polygon 20_2" style="mix-blend-mode:lighten" opacity="0.25">
<path d="M797.928 30.6383L719.334 35.9667L720.777 71.2674L795.93 70.6013L797.928 30.6383Z" fill="url(#paint3_linear)"/>
</g>
</g>
</g>
<g id="bottom">
<g id="Group 7">
<path id="Polygon 21" d="M18.5 1023.34L510.5 1023.34C415.642 948.637 331.559 944.442 163.5 988.338L157.5 985.838L18.5 1023.34Z" fill="#161615"/>
<g id="Polygon 22" filter="url(#filter8_dii)">
<path d="M0 1017.84L148.5 980.838L158 982.838C361.758 933.734 443.061 954.797 514.619 1023.34H510C426.322 959.525 350.918 940.309 162.5 989.338L152.5 987.338L19 1023.34H0V1017.84Z" fill="#5ECCF1"/>
</g>
<path id="Polygon 23" d="M126.258 1021.84L170.41 1009.28L170.42 1009.28C261.285 982.808 321.451 974.563 367.941 978.943C412.59 983.149 444.749 999.012 479.518 1021.84H452.752C401.395 1004.09 359.166 996.467 317.167 997.108C275.177 997.749 233.504 1006.65 183.278 1021.84H126.258Z" fill="#262626" stroke="#2F2F2E" stroke-width="3"/>
<path id="Polygon 24" d="M250.892 990.596L250.25 990.69V991.338V1002.34V1003.22L251.119 1003.08L297.619 995.579L298.164 995.491L298.242 994.944L299.742 984.444L299.884 983.451L298.892 983.596L250.892 990.596Z" fill="#070707" stroke="#181818" stroke-width="1.5"/>
</g>
<g id="Group 8">
<path id="Polygon 21_2" d="M1421.12 1023.68L929.119 1023.68C1023.98 948.976 1108.06 944.781 1276.12 988.676L1282.12 986.176L1421.12 1023.68Z" fill="#161615"/>
<g id="Polygon 22_2" filter="url(#filter9_dii)">
<path d="M1439.62 1018.18L1291.12 981.176L1281.62 983.176C1077.86 934.072 996.558 955.136 925 1023.68H929.619C1013.3 959.863 1088.7 940.648 1277.12 989.676L1287.12 987.676L1420.62 1023.68H1439.62V1018.18Z" fill="#5ECCF1"/>
</g>
<path id="Polygon 23_2" d="M1313.36 1022.18L1269.21 1009.62L1269.2 1009.62C1178.33 983.146 1118.17 974.901 1071.68 979.281C1027.03 983.488 994.87 999.35 960.1 1022.18H986.867C1038.22 1004.43 1080.45 996.805 1122.45 997.446C1164.44 998.087 1206.11 1006.99 1256.34 1022.18H1313.36Z" fill="#262626" stroke="#2F2F2E" stroke-width="3"/>
<path id="Polygon 24_2" d="M1188.73 990.934L1189.37 991.028V991.677V1002.68V1003.56L1188.5 1003.42L1142 995.917L1141.45 995.829L1141.38 995.283L1139.88 984.783L1139.73 983.79L1140.73 983.934L1188.73 990.934Z" fill="#070707" stroke="#181818" stroke-width="1.5"/>
</g>
</g>
<g id="decals">
<g id="missile separators">
<g id="Polygon 59" filter="url(#filter10_d)">
<path d="M191.5 738L208 736L264.5 793.5L207.5 870L200 870.5L253 799.5L191.5 738Z" fill="#7BCFEC" fill-opacity="0.28"/>
<path d="M191.019 734.029L182.861 735.018L188.672 740.828L247.724 799.881L196.795 868.107L191.598 875.069L200.266 874.491L207.766 873.991L209.606 873.868L210.708 872.39L267.708 795.89L269.755 793.141L267.353 790.696L210.853 733.196L209.473 731.792L207.519 732.029L191.019 734.029Z" stroke="#AEBCD1" stroke-opacity="0.14" stroke-width="8"/>
</g>
<g id="Polygon 60" filter="url(#filter11_d)">
<path d="M187.5 874L183.5 879.5L41 913.5L46 907L187.5 874Z" fill="#7BCFEC" fill-opacity="0.28"/>
</g>
<g id="Polygon 61" filter="url(#filter12_d)">
<path d="M1249 738L1232.5 736L1176 793.5L1233 870L1240.5 870.5L1187.5 799.5L1249 738Z" fill="#7BCFEC" fill-opacity="0.28"/>
<path d="M1249.48 734.029L1257.64 735.018L1251.83 740.828L1192.78 799.881L1243.71 868.107L1248.9 875.069L1240.23 874.491L1232.73 873.991L1230.89 873.868L1229.79 872.39L1172.79 795.89L1170.74 793.141L1173.15 790.696L1229.65 733.196L1231.03 731.792L1232.98 732.029L1249.48 734.029Z" stroke="#AEBCD1" stroke-opacity="0.14" stroke-width="8"/>
</g>
<g id="Polygon 62" filter="url(#filter13_d)">
<path d="M1253 874L1257 879.5L1399.5 913.5L1394.5 907L1253 874Z" fill="#7BCFEC" fill-opacity="0.28"/>
</g>
</g>
<g id="Polygon 27" filter="url(#filter14_d)">
<path d="M483 129.798L434.5 197.087L422 177.512L472 109L548 118.787V124.905L541 135.304L483 129.798Z" fill="#7BCFEC" fill-opacity="0.28"/>
</g>
<g id="Polygon 28" filter="url(#filter15_d)">
<path d="M970 129.798L1018.5 197.087L1031 177.512L981 109L905 118.787V124.905L912 135.304L970 129.798Z" fill="#7BCFEC" fill-opacity="0.28"/>
</g>
<g id="Polygon 29" filter="url(#filter16_d)">
<path d="M548 118.788C583.13 122.916 602.952 124.482 638.5 126.128L642.5 132.245C707.912 135.07 744.587 135.047 810 132.857L815 126.128C850.121 124.019 869.824 122.496 905 118.788V124.905L817 131.634L812.5 138.362C744.939 141.183 707.061 141.535 639.5 138.362L635.5 131.634L548 124.905V118.788Z" fill="#7BCFEC" fill-opacity="0.28"/>
</g>
<g id="Polygon 30" filter="url(#filter17_d)">
<path d="M964.5 135.916L1002 188.523L986 215.439L945 219.109V213.604L975.5 209.933L990.5 184.853L958 137.751L964.5 135.916Z" fill="#7BCFEC" fill-opacity="0.23"/>
</g>
<g id="Polygon 31" filter="url(#filter18_d)">
<path d="M487.5 135.916L450 188.523L466 215.439L507 219.109V213.604L476.5 209.933L461.5 184.853L494 137.751L487.5 135.916Z" fill="#7BCFEC" fill-opacity="0.23"/>
</g>
</g>
<g id="energy">
<g id="energy blocks">
<path id="Polygon 41" d="M662.332 179.5H674.314V188.5H662.332V179.5Z" fill="#6DABCC" stroke="#6DABCC"/>
<path id="Polygon 44" d="M682.304 180.5H694.286V189.5H682.304V180.5Z" fill="#6DABCC" stroke="#6DABCC"/>
<path id="Polygon 45" d="M702.276 180.5H714.258V189.5H702.276V180.5Z" fill="#6DABCC" stroke="#6DABCC"/>
<path id="Polygon 46" d="M723.247 180.5H735.229V189.5H723.247V180.5Z" fill="#6DABCC" stroke="#6DABCC"/>
<path id="Polygon 47" d="M742.22 180.5H754.202V189.5H742.22V180.5Z" fill="#6DABCC" stroke="#6DABCC"/>
<path id="Polygon 48" d="M763.191 180.5H775.173V189.5H763.191V180.5Z" fill="#6DABCC" stroke="#6DABCC"/>
<path id="Polygon 49" d="M783.163 179.5H795.145V188.5H783.163V179.5Z" fill="#6DABCC" stroke="#6DABCC"/>
<path id="Polygon 50" d="M803.135 179.5H815.117V188.5H803.135V179.5Z" fill="#6DABCC" stroke="#6DABCC"/>
<path id="Polygon 51" d="M823.107 178.5H835.089V187.5H823.107V178.5Z" fill="#6DABCC" stroke="#6DABCC"/>
<path id="Polygon 52" d="M844.078 177.5H856.059V186.5H844.078V177.5Z" fill="#6DABCC" stroke="#6DABCC"/>
<path id="Polygon 53" d="M864.05 176.5H876.031V185.5H864.05V176.5Z" fill="#6DABCC" stroke="#6DABCC"/>
<path id="Polygon 54" d="M885.02 174.5H897.002V183.5H885.02V174.5Z" fill="#6DABCC" stroke="#6DABCC"/>
<path id="Polygon 42" d="M642.36 179.5H654.342V188.5H642.36V179.5Z" fill="#6DABCC" stroke="#6DABCC"/>
<path id="Polygon 43" d="M622.388 178.5H634.37V187.5H622.388V178.5Z" fill="#6DABCC" stroke="#6DABCC"/>
</g>
<path id="energy_bar" d="M622.387 199C730.41 203.026 790.975 202.126 899 195.5V200.5C791.435 208.366 730.84 208.83 622.387 204.5V199Z" fill="#6DABCC" fill-opacity="0.4"/>
<rect id="energy_text" x="542" y="164" width="77.8909" height="41" fill="#C4C4C4" fill-opacity="0.2"/>
</g>
<g id="scan panels">
<path id="center_panel_box" d="M1009.5 234H442V662.311H1009.5V234Z" fill="#C4C4C4" fill-opacity="0.2"/>
<g id="Polygon 63" filter="url(#filter19_d)">
<path d="M1300.13 138.887L1298.99 137.737L1297.4 138.06L1041.4 190.202L1040.32 190.422L1039.64 191.29L1029.64 204.035L1028.21 205.858L1029.61 207.702L1102.5 303.649V650.827V652.004L1103.3 652.867L1132.3 684.151L1133.03 684.934L1134.08 685.083L1336.08 713.471L1337.63 713.689L1338.7 712.542L1380.7 667.353L1381.5 666.49V665.311V222.109V220.873L1380.63 219.996L1300.13 138.887Z" stroke="#7BCFEC" stroke-opacity="0.28" stroke-width="6"/>
</g>
<g id="Polygon 64" filter="url(#filter20_d)">
<path d="M152.371 138.887L153.512 137.737L155.099 138.06L411.099 190.202L412.179 190.422L412.86 191.29L422.86 204.035L424.29 205.858L422.889 207.702L350 303.649V650.827V652.004L349.2 652.867L320.2 684.151L319.475 684.934L318.418 685.083L116.418 713.471L114.868 713.689L113.803 712.542L71.8026 667.353L71 666.49V665.311V222.109V220.873L71.8707 219.996L152.371 138.887Z" stroke="#7BCFEC" stroke-opacity="0.28" stroke-width="6"/>
</g>
<path id="right_panel_box" d="M1105.5 302.638L1378.5 258.608V665.311L1105.5 650.827V302.638Z" fill="#C4C4C4" fill-opacity="0.2"/>
<path id="left_panel_box" d="M347 302.638L74 258.608V665.311L347 650.827V302.638Z" fill="#C4C4C4" fill-opacity="0.2"/>
<g id="Polygon 67">
<path d="M1040 315.384H1057.5L1081 342.901V399.39V638.081L1057.5 669.366H1040L1057.5 646.772V602.741L1074 580.146L1073 401.128L1056.5 379.692V335.082L1040 315.384Z" fill="#14191C" fill-opacity="0.2"/>
<path d="M1040 310.884H1030.36L1036.55 318.274L1052 336.718V379.692V381.223L1052.93 382.437L1068.51 402.67L1069.49 578.69L1053.87 600.087L1053 601.273V602.741V645.233L1036.44 666.611L1030.82 673.866H1040H1057.5H1059.75L1061.1 672.069L1084.6 640.784L1085.5 639.583V638.081V399.39V342.901V341.241L1084.42 339.979L1060.92 312.462L1059.57 310.884H1057.5H1040Z" stroke="#7BCFEC" stroke-opacity="0.24" stroke-width="9"/>
</g>
<path id="Polygon 68" d="M1044 415.611L1057 430.095V555.234L1044 569.139V415.611Z" fill="#7BCFEC" fill-opacity="0.2"/>
<g id="Polygon 69">
<path d="M412 315.384H394.5L371 342.901V399.39V638.081L394.5 669.366H412L394.5 646.772V602.741L378 580.146L379 401.128L395.5 379.692V335.082L412 315.384Z" fill="#14191C" fill-opacity="0.2"/>
<path d="M412 310.884H421.64L415.45 318.274L400 336.718V379.692V381.223L399.066 382.437L383.491 402.67L382.508 578.69L398.134 600.087L399 601.273V602.741V645.233L415.558 666.611L421.177 673.866H412H394.5H392.252L390.902 672.069L367.402 640.784L366.5 639.583V638.081V399.39V342.901V341.241L367.578 339.979L391.078 312.462L392.425 310.884H394.5H412Z" stroke="#7BCFEC" stroke-opacity="0.24" stroke-width="9"/>
</g>
<path id="Polygon 70" d="M408 415.611L395 430.095V555.234L408 569.139V415.611Z" fill="#7BCFEC" fill-opacity="0.2"/>
<g id="description_box" filter="url(#filter21_d)">
<path d="M264.268 713.075L262.787 713.295L262.073 714.611L248.718 739.213L247.697 741.094L249.144 742.672L294.22 791.817L237.482 879.368L233.52 885.483L240.639 883.931C300.638 870.855 344.364 870.83 384.573 882.184C424.864 893.561 461.908 916.435 508.486 949.737L509.484 950.451L510.696 950.261C665.699 925.958 757.363 925.443 934.072 950.969L935.517 951.178L936.573 950.169C967.697 920.441 997.331 902.91 1037.07 894.319C1076.98 885.692 1127.25 886.04 1199.73 892.488L1205.48 893L1202.6 888L1147.68 792.868L1192.03 742.63L1193.49 740.977L1192.35 739.092L1180.02 718.707L1179.3 717.515L1177.92 717.297C807.492 658.638 608.342 661.907 264.268 713.075Z" stroke="#7BCFEC" stroke-opacity="0.28" stroke-width="6"/>
</g>
</g>
</g>
<defs>
<filter id="filter0_diiif" x="-23.6679" y="-15.3358" width="1488.67" height="156.328" filterUnits="userSpaceOnUse" color-interpolation-filters="sRGB">
<feFlood flood-opacity="0" result="BackgroundImageFix"/>
<feColorMatrix in="SourceAlpha" type="matrix" values="0 0 0 0 0 0 0 0 0 0 0 0 0 0 0 0 0 0 127 0"/>
<feOffset dy="7"/>
<feGaussianBlur stdDeviation="12.5"/>
<feColorMatrix type="matrix" values="0 0 0 0 0.254902 0 0 0 0 0.647059 0 0 0 0 0.811765 0 0 0 0.8 0"/>
<feBlend mode="lighten" in2="BackgroundImageFix" result="effect1_dropShadow"/>
<feBlend mode="normal" in="SourceGraphic" in2="effect1_dropShadow" result="shape"/>
<feColorMatrix in="SourceAlpha" type="matrix" values="0 0 0 0 0 0 0 0 0 0 0 0 0 0 0 0 0 0 127 0" result="hardAlpha"/>
<feOffset dy="4"/>
<feGaussianBlur stdDeviation="1.5"/>
<feComposite in2="hardAlpha" operator="arithmetic" k2="-1" k3="1"/>
<feColorMatrix type="matrix" values="0 0 0 0 0.219608 0 0 0 0 0.545098 0 0 0 0 0.666667 0 0 0 0.35 0"/>
<feBlend mode="lighten" in2="shape" result="effect2_innerShadow"/>
<feColorMatrix in="SourceAlpha" type="matrix" values="0 0 0 0 0 0 0 0 0 0 0 0 0 0 0 0 0 0 127 0" result="hardAlpha"/>
<feOffset dx="10"/>
<feGaussianBlur stdDeviation="2"/>
<feComposite in2="hardAlpha" operator="arithmetic" k2="-1" k3="1"/>
<feColorMatrix type="matrix" values="0 0 0 0 0 0 0 0 0 0 0 0 0 0 0 0 0 0 0.5 0"/>
<feBlend mode="normal" in2="effect2_innerShadow" result="effect3_innerShadow"/>
<feColorMatrix in="SourceAlpha" type="matrix" values="0 0 0 0 0 0 0 0 0 0 0 0 0 0 0 0 0 0 127 0" result="hardAlpha"/>
<feOffset dx="-10"/>
<feGaussianBlur stdDeviation="2"/>
<feComposite in2="hardAlpha" operator="arithmetic" k2="-1" k3="1"/>
<feColorMatrix type="matrix" values="0 0 0 0 0 0 0 0 0 0 0 0 0 0 0 0 0 0 0.5 0"/>
<feBlend mode="normal" in2="effect3_innerShadow" result="effect4_innerShadow"/>
<feGaussianBlur stdDeviation="1" result="effect5_foregroundBlur"/>
</filter>
<filter id="filter1_d" x="289.73" y="0" width="419.615" height="57.2858" filterUnits="userSpaceOnUse" color-interpolation-filters="sRGB">
<feFlood flood-opacity="0" result="BackgroundImageFix"/>
<feColorMatrix in="SourceAlpha" type="matrix" values="0 0 0 0 0 0 0 0 0 0 0 0 0 0 0 0 0 0 127 0"/>
<feOffset dy="4"/>
<feGaussianBlur stdDeviation="1"/>
<feColorMatrix type="matrix" values="0 0 0 0 0.117647 0 0 0 0 0.133333 0 0 0 0 0.145098 0 0 0 0.75 0"/>
<feBlend mode="normal" in2="BackgroundImageFix" result="effect1_dropShadow"/>
<feBlend mode="normal" in="SourceGraphic" in2="effect1_dropShadow" result="shape"/>
</filter>
<filter id="filter2_d" x="730.655" y="0" width="419.615" height="57.2858" filterUnits="userSpaceOnUse" color-interpolation-filters="sRGB">
<feFlood flood-opacity="0" result="BackgroundImageFix"/>
<feColorMatrix in="SourceAlpha" type="matrix" values="0 0 0 0 0 0 0 0 0 0 0 0 0 0 0 0 0 0 127 0"/>
<feOffset dy="4"/>
<feGaussianBlur stdDeviation="1"/>
<feColorMatrix type="matrix" values="0 0 0 0 0.117647 0 0 0 0 0.133333 0 0 0 0 0.145098 0 0 0 0.75 0"/>
<feBlend mode="normal" in2="BackgroundImageFix" result="effect1_dropShadow"/>
<feBlend mode="normal" in="SourceGraphic" in2="effect1_dropShadow" result="shape"/>
</filter>
<filter id="filter3_if" x="73.5976" y="-1" width="1279.48" height="93.5416" filterUnits="userSpaceOnUse" color-interpolation-filters="sRGB">
<feFlood flood-opacity="0" result="BackgroundImageFix"/>
<feBlend mode="normal" in="SourceGraphic" in2="BackgroundImageFix" result="shape"/>
<feColorMatrix in="SourceAlpha" type="matrix" values="0 0 0 0 0 0 0 0 0 0 0 0 0 0 0 0 0 0 127 0" result="hardAlpha"/>
<feOffset dy="4"/>
<feGaussianBlur stdDeviation="2"/>
<feComposite in2="hardAlpha" operator="arithmetic" k2="-1" k3="1"/>
<feColorMatrix type="matrix" values="0 0 0 0 0.188235 0 0 0 0 0.188235 0 0 0 0 0.188235 0 0 0 1 0"/>
<feBlend mode="normal" in2="shape" result="effect1_innerShadow"/>
<feGaussianBlur stdDeviation="0.5" result="effect2_foregroundBlur"/>
</filter>
<filter id="filter4_dii" x="543.493" y="65.2729" width="83.9297" height="19.9889" filterUnits="userSpaceOnUse" color-interpolation-filters="sRGB">
<feFlood flood-opacity="0" result="BackgroundImageFix"/>
<feColorMatrix in="SourceAlpha" type="matrix" values="0 0 0 0 0 0 0 0 0 0 0 0 0 0 0 0 0 0 127 0"/>
<feOffset dy="4"/>
<feGaussianBlur stdDeviation="2"/>
<feColorMatrix type="matrix" values="0 0 0 0 0 0 0 0 0 0 0 0 0 0 0 0 0 0 0.25 0"/>
<feBlend mode="normal" in2="BackgroundImageFix" result="effect1_dropShadow"/>
<feBlend mode="normal" in="SourceGraphic" in2="effect1_dropShadow" result="shape"/>
<feColorMatrix in="SourceAlpha" type="matrix" values="0 0 0 0 0 0 0 0 0 0 0 0 0 0 0 0 0 0 127 0" result="hardAlpha"/>
<feOffset dx="4"/>
<feGaussianBlur stdDeviation="2"/>
<feComposite in2="hardAlpha" operator="arithmetic" k2="-1" k3="1"/>
<feColorMatrix type="matrix" values="0 0 0 0 0.160784 0 0 0 0 0.27451 0 0 0 0 0.298039 0 0 0 1 0"/>
<feBlend mode="normal" in2="shape" result="effect2_innerShadow"/>
<feColorMatrix in="SourceAlpha" type="matrix" values="0 0 0 0 0 0 0 0 0 0 0 0 0 0 0 0 0 0 127 0" result="hardAlpha"/>
<feOffset dx="-4"/>
<feGaussianBlur stdDeviation="2"/>
<feComposite in2="hardAlpha" operator="arithmetic" k2="-1" k3="1"/>
<feColorMatrix type="matrix" values="0 0 0 0 0.160784 0 0 0 0 0.27451 0 0 0 0 0.298039 0 0 0 1 0"/>
<feBlend mode="normal" in2="effect2_innerShadow" result="effect3_innerShadow"/>
</filter>
<filter id="filter5_dii" x="630.746" y="70.6013" width="83.2636" height="18.6568" filterUnits="userSpaceOnUse" color-interpolation-filters="sRGB">
<feFlood flood-opacity="0" result="BackgroundImageFix"/>
<feColorMatrix in="SourceAlpha" type="matrix" values="0 0 0 0 0 0 0 0 0 0 0 0 0 0 0 0 0 0 127 0"/>
<feOffset dy="4"/>
<feGaussianBlur stdDeviation="2"/>
<feColorMatrix type="matrix" values="0 0 0 0 0 0 0 0 0 0 0 0 0 0 0 0 0 0 0.25 0"/>
<feBlend mode="normal" in2="BackgroundImageFix" result="effect1_dropShadow"/>
<feBlend mode="normal" in="SourceGraphic" in2="effect1_dropShadow" result="shape"/>
<feColorMatrix in="SourceAlpha" type="matrix" values="0 0 0 0 0 0 0 0 0 0 0 0 0 0 0 0 0 0 127 0" result="hardAlpha"/>
<feOffset dx="4"/>
<feGaussianBlur stdDeviation="2"/>
<feComposite in2="hardAlpha" operator="arithmetic" k2="-1" k3="1"/>
<feColorMatrix type="matrix" values="0 0 0 0 0.160784 0 0 0 0 0.27451 0 0 0 0 0.298039 0 0 0 1 0"/>
<feBlend mode="normal" in2="shape" result="effect2_innerShadow"/>
<feColorMatrix in="SourceAlpha" type="matrix" values="0 0 0 0 0 0 0 0 0 0 0 0 0 0 0 0 0 0 127 0" result="hardAlpha"/>
<feOffset dx="-4"/>
<feGaussianBlur stdDeviation="2"/>
<feComposite in2="hardAlpha" operator="arithmetic" k2="-1" k3="1"/>
<feColorMatrix type="matrix" values="0 0 0 0 0.160784 0 0 0 0 0.27451 0 0 0 0 0.298039 0 0 0 1 0"/>
<feBlend mode="normal" in2="effect2_innerShadow" result="effect3_innerShadow"/>
</filter>
<filter id="filter6_dii" x="803.253" y="65.2729" width="83.9297" height="19.9889" filterUnits="userSpaceOnUse" color-interpolation-filters="sRGB">
<feFlood flood-opacity="0" result="BackgroundImageFix"/>
<feColorMatrix in="SourceAlpha" type="matrix" values="0 0 0 0 0 0 0 0 0 0 0 0 0 0 0 0 0 0 127 0"/>
<feOffset dy="4"/>
<feGaussianBlur stdDeviation="2"/>
<feColorMatrix type="matrix" values="0 0 0 0 0 0 0 0 0 0 0 0 0 0 0 0 0 0 0.25 0"/>
<feBlend mode="normal" in2="BackgroundImageFix" result="effect1_dropShadow"/>
<feBlend mode="normal" in="SourceGraphic" in2="effect1_dropShadow" result="shape"/>
<feColorMatrix in="SourceAlpha" type="matrix" values="0 0 0 0 0 0 0 0 0 0 0 0 0 0 0 0 0 0 127 0" result="hardAlpha"/>
<feOffset dx="4"/>
<feGaussianBlur stdDeviation="2"/>
<feComposite in2="hardAlpha" operator="arithmetic" k2="-1" k3="1"/>
<feColorMatrix type="matrix" values="0 0 0 0 0.160784 0 0 0 0 0.27451 0 0 0 0 0.298039 0 0 0 1 0"/>
<feBlend mode="normal" in2="shape" result="effect2_innerShadow"/>
<feColorMatrix in="SourceAlpha" type="matrix" values="0 0 0 0 0 0 0 0 0 0 0 0 0 0 0 0 0 0 127 0" result="hardAlpha"/>
<feOffset dx="-4"/>
<feGaussianBlur stdDeviation="2"/>
<feComposite in2="hardAlpha" operator="arithmetic" k2="-1" k3="1"/>
<feColorMatrix type="matrix" values="0 0 0 0 0.160784 0 0 0 0 0.27451 0 0 0 0 0.298039 0 0 0 1 0"/>
<feBlend mode="normal" in2="effect2_innerShadow" result="effect3_innerShadow"/>
</filter>
<filter id="filter7_dii" x="716.666" y="70.6013" width="83.2636" height="18.6568" filterUnits="userSpaceOnUse" color-interpolation-filters="sRGB">
<feFlood flood-opacity="0" result="BackgroundImageFix"/>
<feColorMatrix in="SourceAlpha" type="matrix" values="0 0 0 0 0 0 0 0 0 0 0 0 0 0 0 0 0 0 127 0"/>
<feOffset dy="4"/>
<feGaussianBlur stdDeviation="2"/>
<feColorMatrix type="matrix" values="0 0 0 0 0 0 0 0 0 0 0 0 0 0 0 0 0 0 0.25 0"/>
<feBlend mode="normal" in2="BackgroundImageFix" result="effect1_dropShadow"/>
<feBlend mode="normal" in="SourceGraphic" in2="effect1_dropShadow" result="shape"/>
<feColorMatrix in="SourceAlpha" type="matrix" values="0 0 0 0 0 0 0 0 0 0 0 0 0 0 0 0 0 0 127 0" result="hardAlpha"/>
<feOffset dx="4"/>
<feGaussianBlur stdDeviation="2"/>
<feComposite in2="hardAlpha" operator="arithmetic" k2="-1" k3="1"/>
<feColorMatrix type="matrix" values="0 0 0 0 0.160784 0 0 0 0 0.27451 0 0 0 0 0.298039 0 0 0 1 0"/>
<feBlend mode="normal" in2="shape" result="effect2_innerShadow"/>
<feColorMatrix in="SourceAlpha" type="matrix" values="0 0 0 0 0 0 0 0 0 0 0 0 0 0 0 0 0 0 127 0" result="hardAlpha"/>
<feOffset dx="-4"/>
<feGaussianBlur stdDeviation="2"/>
<feComposite in2="hardAlpha" operator="arithmetic" k2="-1" k3="1"/>
<feColorMatrix type="matrix" values="0 0 0 0 0.160784 0 0 0 0 0.27451 0 0 0 0 0.298039 0 0 0 1 0"/>
<feBlend mode="normal" in2="effect2_innerShadow" result="effect3_innerShadow"/>
</filter>
<filter id="filter8_dii" x="-15" y="937" width="544.619" height="97.3381" filterUnits="userSpaceOnUse" color-interpolation-filters="sRGB">
<feFlood flood-opacity="0" result="BackgroundImageFix"/>
<feColorMatrix in="SourceAlpha" type="matrix" values="0 0 0 0 0 0 0 0 0 0 0 0 0 0 0 0 0 0 127 0"/>
<feOffset dy="-4"/>
<feGaussianBlur stdDeviation="7.5"/>
<feColorMatrix type="matrix" values="0 0 0 0 0.368627 0 0 0 0 0.8 0 0 0 0 0.945098 0 0 0 0.6 0"/>
<feBlend mode="normal" in2="BackgroundImageFix" result="effect1_dropShadow"/>
<feBlend mode="normal" in="SourceGraphic" in2="effect1_dropShadow" result="shape"/>
<feColorMatrix in="SourceAlpha" type="matrix" values="0 0 0 0 0 0 0 0 0 0 0 0 0 0 0 0 0 0 127 0" result="hardAlpha"/>
<feOffset dx="-4"/>
<feGaussianBlur stdDeviation="2"/>
<feComposite in2="hardAlpha" operator="arithmetic" k2="-1" k3="1"/>
<feColorMatrix type="matrix" values="0 0 0 0 0.160784 0 0 0 0 0.27451 0 0 0 0 0.298039 0 0 0 1 0"/>
<feBlend mode="normal" in2="shape" result="effect2_innerShadow"/>
<feColorMatrix in="SourceAlpha" type="matrix" values="0 0 0 0 0 0 0 0 0 0 0 0 0 0 0 0 0 0 127 0" result="hardAlpha"/>
<feOffset dx="4"/>
<feGaussianBlur stdDeviation="2"/>
<feComposite in2="hardAlpha" operator="arithmetic" k2="-1" k3="1"/>
<feColorMatrix type="matrix" values="0 0 0 0 0.160784 0 0 0 0 0.27451 0 0 0 0 0.298039 0 0 0 1 0"/>
<feBlend mode="normal" in2="effect2_innerShadow" result="effect3_innerShadow"/>
</filter>
<filter id="filter9_dii" x="910" y="937.338" width="544.619" height="97.3381" filterUnits="userSpaceOnUse" color-interpolation-filters="sRGB">
<feFlood flood-opacity="0" result="BackgroundImageFix"/>
<feColorMatrix in="SourceAlpha" type="matrix" values="0 0 0 0 0 0 0 0 0 0 0 0 0 0 0 0 0 0 127 0"/>
<feOffset dy="-4"/>
<feGaussianBlur stdDeviation="7.5"/>
<feColorMatrix type="matrix" values="0 0 0 0 0.368627 0 0 0 0 0.8 0 0 0 0 0.945098 0 0 0 0.6 0"/>
<feBlend mode="normal" in2="BackgroundImageFix" result="effect1_dropShadow"/>
<feBlend mode="normal" in="SourceGraphic" in2="effect1_dropShadow" result="shape"/>
<feColorMatrix in="SourceAlpha" type="matrix" values="0 0 0 0 0 0 0 0 0 0 0 0 0 0 0 0 0 0 127 0" result="hardAlpha"/>
<feOffset dx="-4"/>
<feGaussianBlur stdDeviation="2"/>
<feComposite in2="hardAlpha" operator="arithmetic" k2="-1" k3="1"/>
<feColorMatrix type="matrix" values="0 0 0 0 0.160784 0 0 0 0 0.27451 0 0 0 0 0.298039 0 0 0 1 0"/>
<feBlend mode="normal" in2="shape" result="effect2_innerShadow"/>
<feColorMatrix in="SourceAlpha" type="matrix" values="0 0 0 0 0 0 0 0 0 0 0 0 0 0 0 0 0 0 127 0" result="hardAlpha"/>
<feOffset dx="4"/>
<feGaussianBlur stdDeviation="2"/>
<feComposite in2="hardAlpha" operator="arithmetic" k2="-1" k3="1"/>
<feColorMatrix type="matrix" values="0 0 0 0 0.160784 0 0 0 0 0.27451 0 0 0 0 0.298039 0 0 0 1 0"/>
<feBlend mode="normal" in2="effect2_innerShadow" result="effect3_innerShadow"/>
</filter>
<filter id="filter10_d" x="170.222" y="726.584" width="104.789" height="154.054" filterUnits="userSpaceOnUse" color-interpolation-filters="sRGB">
<feFlood flood-opacity="0" result="BackgroundImageFix"/>
<feColorMatrix in="SourceAlpha" type="matrix" values="0 0 0 0 0 0 0 0 0 0 0 0 0 0 0 0 0 0 127 0"/>
<feOffset dx="-3"/>
<feGaussianBlur stdDeviation="0.5"/>
<feColorMatrix type="matrix" values="0 0 0 0 0.682353 0 0 0 0 0.737255 0 0 0 0 0.819608 0 0 0 0.05 0"/>
<feBlend mode="normal" in2="BackgroundImageFix" result="effect1_dropShadow"/>
<feBlend mode="normal" in="SourceGraphic" in2="effect1_dropShadow" result="shape"/>
</filter>
<filter id="filter11_d" x="28" y="860" width="162.5" height="55.5" filterUnits="userSpaceOnUse" color-interpolation-filters="sRGB">
<feFlood flood-opacity="0" result="BackgroundImageFix"/>
<feColorMatrix in="SourceAlpha" type="matrix" values="0 0 0 0 0 0 0 0 0 0 0 0 0 0 0 0 0 0 127 0"/>
<feOffset dx="-5" dy="-6"/>
<feGaussianBlur stdDeviation="4"/>
<feColorMatrix type="matrix" values="0 0 0 0 0.682353 0 0 0 0 0.737255 0 0 0 0 0.819608 0 0 0 0.3 0"/>
<feBlend mode="normal" in2="BackgroundImageFix" result="effect1_dropShadow"/>
<feBlend mode="normal" in="SourceGraphic" in2="effect1_dropShadow" result="shape"/>
</filter>
<filter id="filter12_d" x="1165.49" y="726.584" width="104.789" height="154.054" filterUnits="userSpaceOnUse" color-interpolation-filters="sRGB">
<feFlood flood-opacity="0" result="BackgroundImageFix"/>
<feColorMatrix in="SourceAlpha" type="matrix" values="0 0 0 0 0 0 0 0 0 0 0 0 0 0 0 0 0 0 127 0"/>
<feOffset dx="3"/>
<feGaussianBlur stdDeviation="0.5"/>
<feColorMatrix type="matrix" values="0 0 0 0 0.682353 0 0 0 0 0.737255 0 0 0 0 0.819608 0 0 0 0.05 0"/>
<feBlend mode="normal" in2="BackgroundImageFix" result="effect1_dropShadow"/>
<feBlend mode="normal" in="SourceGraphic" in2="effect1_dropShadow" result="shape"/>
</filter>
<filter id="filter13_d" x="1250" y="860" width="162.5" height="55.5" filterUnits="userSpaceOnUse" color-interpolation-filters="sRGB">
<feFlood flood-opacity="0" result="BackgroundImageFix"/>
<feColorMatrix in="SourceAlpha" type="matrix" values="0 0 0 0 0 0 0 0 0 0 0 0 0 0 0 0 0 0 127 0"/>
<feOffset dx="5" dy="-6"/>
<feGaussianBlur stdDeviation="4"/>
<feColorMatrix type="matrix" values="0 0 0 0 0.682353 0 0 0 0 0.737255 0 0 0 0 0.819608 0 0 0 0.3 0"/>
<feBlend mode="normal" in2="BackgroundImageFix" result="effect1_dropShadow"/>
<feBlend mode="normal" in="SourceGraphic" in2="effect1_dropShadow" result="shape"/>
</filter>
<filter id="filter14_d" x="418" y="109" width="130" height="96.0874" filterUnits="userSpaceOnUse" color-interpolation-filters="sRGB">
<feFlood flood-opacity="0" result="BackgroundImageFix"/>
<feColorMatrix in="SourceAlpha" type="matrix" values="0 0 0 0 0 0 0 0 0 0 0 0 0 0 0 0 0 0 127 0"/>
<feOffset dx="-2" dy="6"/>
<feGaussianBlur stdDeviation="1"/>
<feColorMatrix type="matrix" values="0 0 0 0 0.682353 0 0 0 0 0.737255 0 0 0 0 0.819608 0 0 0 0.15 0"/>
<feBlend mode="normal" in2="BackgroundImageFix" result="effect1_dropShadow"/>
<feBlend mode="normal" in="SourceGraphic" in2="effect1_dropShadow" result="shape"/>
</filter>
<filter id="filter15_d" x="905" y="109" width="130" height="96.0874" filterUnits="userSpaceOnUse" color-interpolation-filters="sRGB">
<feFlood flood-opacity="0" result="BackgroundImageFix"/>
<feColorMatrix in="SourceAlpha" type="matrix" values="0 0 0 0 0 0 0 0 0 0 0 0 0 0 0 0 0 0 127 0"/>
<feOffset dx="2" dy="6"/>
<feGaussianBlur stdDeviation="1"/>
<feColorMatrix type="matrix" values="0 0 0 0 0.682353 0 0 0 0 0.737255 0 0 0 0 0.819608 0 0 0 0.15 0"/>
<feBlend mode="normal" in2="BackgroundImageFix" result="effect1_dropShadow"/>
<feBlend mode="normal" in="SourceGraphic" in2="effect1_dropShadow" result="shape"/>
</filter>
<filter id="filter16_d" x="546" y="118.788" width="361" height="28.8246" filterUnits="userSpaceOnUse" color-interpolation-filters="sRGB">
<feFlood flood-opacity="0" result="BackgroundImageFix"/>
<feColorMatrix in="SourceAlpha" type="matrix" values="0 0 0 0 0 0 0 0 0 0 0 0 0 0 0 0 0 0 127 0"/>
<feOffset dy="5"/>
<feGaussianBlur stdDeviation="1"/>
<feColorMatrix type="matrix" values="0 0 0 0 0.682353 0 0 0 0 0.737255 0 0 0 0 0.819608 0 0 0 0.15 0"/>
<feBlend mode="normal" in2="BackgroundImageFix" result="effect1_dropShadow"/>
<feBlend mode="normal" in="SourceGraphic" in2="effect1_dropShadow" result="shape"/>
</filter>
<filter id="filter17_d" x="943" y="135.916" width="61" height="91.1936" filterUnits="userSpaceOnUse" color-interpolation-filters="sRGB">
<feFlood flood-opacity="0" result="BackgroundImageFix"/>
<feColorMatrix in="SourceAlpha" type="matrix" values="0 0 0 0 0 0 0 0 0 0 0 0 0 0 0 0 0 0 127 0"/>
<feOffset dy="6"/>
<feGaussianBlur stdDeviation="1"/>
<feColorMatrix type="matrix" values="0 0 0 0 0.682353 0 0 0 0 0.737255 0 0 0 0 0.819608 0 0 0 0.1 0"/>
<feBlend mode="normal" in2="BackgroundImageFix" result="effect1_dropShadow"/>
<feBlend mode="normal" in="SourceGraphic" in2="effect1_dropShadow" result="shape"/>
</filter>
<filter id="filter18_d" x="448" y="135.916" width="61" height="91.1936" filterUnits="userSpaceOnUse" color-interpolation-filters="sRGB">
<feFlood flood-opacity="0" result="BackgroundImageFix"/>
<feColorMatrix in="SourceAlpha" type="matrix" values="0 0 0 0 0 0 0 0 0 0 0 0 0 0 0 0 0 0 127 0"/>
<feOffset dy="6"/>
<feGaussianBlur stdDeviation="1"/>
<feColorMatrix type="matrix" values="0 0 0 0 0.682353 0 0 0 0 0.737255 0 0 0 0 0.819608 0 0 0 0.1 0"/>
<feBlend mode="normal" in2="BackgroundImageFix" result="effect1_dropShadow"/>
<feBlend mode="normal" in="SourceGraphic" in2="effect1_dropShadow" result="shape"/>
</filter>
<filter id="filter19_d" x="1024.42" y="124.474" width="376.08" height="598.403" filterUnits="userSpaceOnUse" color-interpolation-filters="sRGB">
<feFlood flood-opacity="0" result="BackgroundImageFix"/>
<feColorMatrix in="SourceAlpha" type="matrix" values="0 0 0 0 0 0 0 0 0 0 0 0 0 0 0 0 0 0 127 0"/>
<feOffset dx="8" dy="-2"/>
<feGaussianBlur stdDeviation="4"/>
<feColorMatrix type="matrix" values="0 0 0 0 0.482353 0 0 0 0 0.811765 0 0 0 0 0.92549 0 0 0 0.14 0"/>
<feBlend mode="normal" in2="BackgroundImageFix" result="effect1_dropShadow"/>
<feBlend mode="normal" in="SourceGraphic" in2="effect1_dropShadow" result="shape"/>
</filter>
<filter id="filter20_d" x="52" y="124.474" width="376.08" height="598.403" filterUnits="userSpaceOnUse" color-interpolation-filters="sRGB">
<feFlood flood-opacity="0" result="BackgroundImageFix"/>
<feColorMatrix in="SourceAlpha" type="matrix" values="0 0 0 0 0 0 0 0 0 0 0 0 0 0 0 0 0 0 127 0"/>
<feOffset dx="-8" dy="-2"/>
<feGaussianBlur stdDeviation="4"/>
<feColorMatrix type="matrix" values="0 0 0 0 0.482353 0 0 0 0 0.811765 0 0 0 0 0.92549 0 0 0 0.14 0"/>
<feBlend mode="normal" in2="BackgroundImageFix" result="effect1_dropShadow"/>
<feBlend mode="normal" in="SourceGraphic" in2="effect1_dropShadow" result="shape"/>
</filter>
<filter id="filter21_d" x="224.04" y="664" width="989.929" height="290.356" filterUnits="userSpaceOnUse" color-interpolation-filters="sRGB">
<feFlood flood-opacity="0" result="BackgroundImageFix"/>
<feColorMatrix in="SourceAlpha" type="matrix" values="0 0 0 0 0 0 0 0 0 0 0 0 0 0 0 0 0 0 127 0"/>
<feOffset dy="-4"/>
<feGaussianBlur stdDeviation="1.5"/>
<feColorMatrix type="matrix" values="0 0 0 0 0.682353 0 0 0 0 0.737255 0 0 0 0 0.819608 0 0 0 0.28 0"/>
<feBlend mode="normal" in2="BackgroundImageFix" result="effect1_dropShadow"/>
<feBlend mode="normal" in="SourceGraphic" in2="effect1_dropShadow" result="shape"/>
</filter>
<linearGradient id="paint0_linear" x1="582.128" y1="22.6457" x2="582.128" y2="67.9371" gradientUnits="userSpaceOnUse">
<stop stop-color="#5BC5E8" stop-opacity="0"/>
<stop offset="1" stop-color="#5BC5E8"/>
</linearGradient>
<linearGradient id="paint1_linear" x1="669.38" y1="27.9741" x2="669.38" y2="73.2655" gradientUnits="userSpaceOnUse">
<stop stop-color="#5BC5E8" stop-opacity="0"/>
<stop offset="1" stop-color="#5BC5E8"/>
</linearGradient>
<linearGradient id="paint2_linear" x1="848.548" y1="22.6457" x2="848.548" y2="67.9371" gradientUnits="userSpaceOnUse">
<stop stop-color="#5BC5E8" stop-opacity="0"/>
<stop offset="1" stop-color="#5BC5E8"/>
</linearGradient>
<linearGradient id="paint3_linear" x1="761.295" y1="27.9741" x2="761.295" y2="73.2655" gradientUnits="userSpaceOnUse">
<stop stop-color="#5BC5E8" stop-opacity="0"/>
<stop offset="1" stop-color="#5BC5E8"/>
</linearGradient>
</defs>
</svg>
